<?xml version="1.0" encoding="UTF-8" standalone="no"?>
<!-- Generator: Adobe Illustrator 16.0.0, SVG Export Plug-In . SVG Version: 6.00 Build 0)  -->

<svg
   xmlns:dc="http://purl.org/dc/elements/1.1/"
   xmlns:cc="http://creativecommons.org/ns#"
   xmlns:rdf="http://www.w3.org/1999/02/22-rdf-syntax-ns#"
   xmlns:svg="http://www.w3.org/2000/svg"
   xmlns="http://www.w3.org/2000/svg"
   xmlns:sodipodi="http://sodipodi.sourceforge.net/DTD/sodipodi-0.dtd"
   xmlns:inkscape="http://www.inkscape.org/namespaces/inkscape"
   version="1.1"
   id="EBA8_cópia_4_xA0_Image_1_"
   x="0px"
   y="0px"
   width="224.5px"
   height="140.5px"
   viewBox="0 0 224.5 140.5"
   enable-background="new 0 0 224.5 140.5"
   xml:space="preserve"
   inkscape:version="0.91 r13725"
   sodipodi:docname="eba.svg"><metadata
     id="metadata29"><rdf:RDF><cc:Work
         rdf:about=""><dc:format>image/svg+xml</dc:format><dc:type
           rdf:resource="http://purl.org/dc/dcmitype/StillImage" /></cc:Work></rdf:RDF></metadata><defs
     id="defs27" /><sodipodi:namedview
     pagecolor="#ffffff"
     bordercolor="#666666"
     borderopacity="1"
     objecttolerance="10"
     gridtolerance="10"
     guidetolerance="10"
     inkscape:pageopacity="0"
     inkscape:pageshadow="2"
     inkscape:window-width="1152"
     inkscape:window-height="663"
     id="namedview25"
     showgrid="false"
     inkscape:zoom="2.22"
     inkscape:cx="105.0746"
     inkscape:cy="82.10182"
     inkscape:window-x="0"
     inkscape:window-y="0"
     inkscape:window-maximized="0"
     inkscape:current-layer="EBA8_cópia_4_xA0_Image_1_" /><g
     id="g3"
     transform="matrix(1.5978836,0,0,1.7824172,-75.885456,-45.366155)"><path
       d="m 48.582,58.634 c 1.014,-9.244 12.912,-15.632 22.07,-5.889 0.857,-0.613 0.418,-1.511 0.434,-2.254 0.076,-3.319 0.012,-6.643 0.104,-9.961 0.178,-6.343 2.591,-10.244 9.183,-12.058 1.281,-0.353 3.417,-0.541 4.736,-0.353 3.856,0.551 6.925,2.89 8.944,6.342 0.406,0.695 0.779,0.812 1.201,0.001 1.798,-3.46 4.864,-5.534 8.485,-6.218 1.638,-0.31 3.959,-0.18 5.042,0.083 7.542,1.833 9.708,7.346 9.418,14.41 -0.135,3.306 -0.022,6.623 -0.022,10.451 0.977,-0.898 1.603,-1.478 2.233,-2.053 4.084,-3.723 9.336,-4.306 14.33,-1.594 4.084,2.218 6.805,7.794 6.133,12.525 -0.07,0.496 0.025,1.026 -0.743,0.978 -0.669,-0.042 -1.077,-0.273 -1.098,-1.035 -0.033,-1.244 -0.015,-2.506 -0.224,-3.726 -0.927,-5.387 -5.492,-8.993 -10.812,-8.623 -5.479,0.381 -9.492,4.356 -9.789,9.811 -0.115,2.122 -0.019,4.255 -0.019,6.479 -1.771,-0.42 -1.941,-1.505 -1.933,-2.868 0.045,-7.33 0.024,-14.66 0.021,-21.989 -0.003,-6.612 -4.008,-11.168 -9.812,-11.176 -6.016,-0.009 -10.21,4.551 -10.21,11.1 0,2.167 -0.013,4.333 0.007,6.499 0.008,0.833 -0.067,1.433 -1.177,1.435 -1.08,0.002 -1.456,-0.342 -1.428,-1.443 0.067,-2.581 0.073,-5.166 0.008,-7.747 -0.138,-5.371 -4.351,-9.62 -9.681,-9.836 -5.831,-0.237 -10.644,3.43 -10.908,8.99 -0.35,7.315 -0.147,14.656 -0.181,21.986 -0.003,0.583 0.044,1.168 0.011,1.749 -0.044,0.756 -0.651,0.955 -1.235,0.967 -0.801,0.017 -0.514,-0.678 -0.547,-1.099 C 71.05,61.606 71.046,60.689 71.005,59.774 70.727,53.732 66.249,49.471 60.314,49.598 54.652,49.72 50.27,54.272 50.25,60.191 c -0.039,11.081 -0.002,22.162 -0.023,33.243 -0.002,1.027 0.492,2.676 -1.658,1.848 0.003,-12.213 0.008,-24.43 0.013,-36.648 z"
       id="path5"
       inkscape:connector-curvature="0"
       style="clip-rule:evenodd;fill:#0e486a;fill-rule:evenodd" /><path
       d="m 103.164,95.988 c -2.73,-0.666 -4.844,-2.765 -6.654,-5.293 0,1.094 -0.066,2.193 0.018,3.281 0.096,1.253 -0.478,1.534 -1.615,1.551 -1.239,0.019 -1.291,-0.652 -1.291,-1.574 0.013,-13.979 0.021,-27.957 -0.012,-41.936 -0.002,-1.188 0.365,-1.578 1.565,-1.569 1.421,0.01 1.343,0.856 1.341,1.816 -0.012,6.155 -0.006,12.311 -0.006,18.607 0.288,-0.17 0.53,-0.231 0.641,-0.387 3.515,-4.948 8.735,-7.083 14.308,-5.834 5.205,1.167 8.435,4.909 9.408,11.235 0.809,5.248 0.113,10.266 -2.945,14.784 -1.788,2.644 -4.195,4.759 -7.257,5.318 -2.46,0.451 -5.072,0.594 -7.501,0.001 z m -6.58,-15.3 c 0,1.164 -0.07,2.334 0.013,3.492 0.307,4.269 3.558,8.225 7.552,9.262 4.714,1.225 8.749,-0.164 11.378,-4.055 2.766,-4.092 3.19,-8.712 2.429,-13.41 -0.894,-5.512 -4.336,-8.803 -9.062,-9.096 -5.862,-0.364 -9.976,2.411 -11.836,7.879 -0.665,1.954 -0.455,3.944 -0.474,5.928 z"
       id="path7"
       inkscape:connector-curvature="0"
       style="clip-rule:evenodd;fill:#fe5f30;fill-rule:evenodd" /><path
       d="m 129.664,95.988 c -2.197,-0.479 -5.049,-3.467 -5.521,-6.872 -0.658,-4.756 1.878,-8.496 6.963,-10.107 3.754,-1.188 7.678,-1.502 11.553,-1.971 1.816,-0.219 2.146,-0.965 1.991,-2.576 -0.575,-5.948 -4.434,-8.684 -10.523,-7.326 -2.534,0.565 -4.774,1.8 -6.913,3.473 -0.848,-2.398 0.089,-3.581 2.069,-4.372 2.099,-0.839 4.216,-1.583 6.472,-1.771 7.125,-0.59 11.426,2.924 11.731,10.066 0.278,6.487 0.05,12.996 0.087,19.494 0.006,1.045 -0.299,1.471 -1.407,1.504 -1.287,0.037 -1.548,-0.545 -1.483,-1.657 0.069,-1.211 0.016,-2.429 -0.202,-3.771 -1.662,2.762 -3.93,5.051 -6.816,5.886 -2.562,0.741 -5.447,0.771 -8.001,0 z m 15.031,-13.836 c -0.115,-0.797 1.063,-2.874 -1.01,-2.707 -4.451,0.36 -8.996,0.598 -13.203,2.351 -2.739,1.143 -3.728,3.232 -3.407,6.516 0.259,2.645 1.953,4.568 4.602,5.229 6.906,1.72 12.902,-3.439 13.018,-11.389 z"
       id="path9"
       inkscape:connector-curvature="0"
       style="clip-rule:evenodd;fill:#fe5f30;fill-rule:evenodd" /><path
       d="M 72.164,95.988 C 63.031,94.069 59.455,77.969 66.271,69.384 c 3.375,-4.25 8.83,-6.015 14.102,-4.522 5.391,1.526 7.542,5.628 8.286,10.717 0.712,4.864 0.644,4.874 -4.347,4.874 -5.573,0 -11.147,0.067 -16.718,-0.04 -1.724,-0.033 -2.076,0.549 -1.954,2.141 0.658,8.614 7.298,13.164 15.611,10.637 1.994,-0.606 3.791,-1.623 5.628,-2.769 0.742,1.843 -0.017,2.965 -1.517,3.881 -1.562,0.812 -3.021,1.351 -4.699,1.686 -2.777,0.554 -5.755,0.703 -8.499,-0.001 z m 3.594,-17.999 c 2.915,0 5.83,0.002 8.744,0 0.834,0 1.72,0.154 1.523,-1.23 -0.543,-3.849 -1.562,-7.535 -5.516,-9.14 -3.901,-1.584 -7.723,-1.004 -10.944,1.888 -2.052,1.842 -3.011,4.29 -3.606,6.961 -0.309,1.385 0.155,1.555 1.305,1.537 2.831,-0.043 5.663,-0.014 8.494,-0.016 z"
       id="path11"
       inkscape:connector-curvature="0"
       style="clip-rule:evenodd;fill:#fe5f30;fill-rule:evenodd" /><path
       d="m 186.155,92.683 c -1.773,1.376 -4.733,1.77 -7.052,0.797 -2.228,-0.936 -2.609,-2.78 -2.397,-4.927 0.065,-0.657 0.061,-1.331 0.001,-1.989 -0.171,-1.861 0.14,-3.522 1.991,-4.422 2.141,-1.038 4.326,-1.103 6.419,0.136 0.48,0.284 1.406,0.571 0.818,1.464 -0.426,0.646 -0.938,1.035 -1.841,0.453 -1.24,-0.8 -2.631,-0.892 -4.045,-0.296 -1.141,0.48 -1.388,1.401 -1.184,2.444 0.233,1.199 1.181,0.527 1.789,0.477 2.817,-0.232 5.876,0.013 6.509,3.169 0.1,0.49 0.029,1.631 -1.008,2.694 z m -4.576,-3.762 c -0.977,0.183 -2.522,0.061 -2.47,1.356 0.062,1.513 1.704,1.538 2.905,1.538 1.052,0 2.544,-0.215 2.509,-1.417 -0.048,-1.675 -1.77,-1.213 -2.944,-1.477 z"
       id="path13"
       inkscape:connector-curvature="0"
       style="clip-rule:evenodd;fill:#0c77be;fill-rule:evenodd" /><path
       d="m 155.606,55.745 c -2.291,1.204 -4.306,2.262 -6.528,3.43 -0.242,-1.238 -0.37,-2.171 0.96,-2.705 2.412,-0.967 4.549,-2.403 6.579,-4 1.155,-0.909 1.475,-0.606 1.468,0.796 -0.037,8.486 -0.029,16.974 -0.002,25.46 0.003,0.951 -0.063,1.573 -1.269,1.604 -1.321,0.032 -1.212,-0.771 -1.212,-1.627 0.006,-6.74 0.004,-13.479 0.004,-20.219 0,-0.799 0,-1.599 0,-2.739 z"
       id="path15"
       inkscape:connector-curvature="0"
       style="clip-rule:evenodd;fill:#131313;fill-rule:evenodd" /><path
       d="m 167.635,55.746 c -2.382,1.25 -4.402,2.312 -6.562,3.445 -0.355,-1.108 -0.339,-2.115 0.584,-2.499 2.929,-1.218 5.465,-3.068 7.922,-4.865 0.897,0.511 0.54,1.163 0.542,1.67 0.025,8.156 0.035,16.312 -0.007,24.469 -0.004,0.885 0.292,2.239 -1.277,2.239 -1.431,0.002 -1.156,-1.513 -1.164,-2.351 -0.066,-7.234 -0.038,-14.469 -0.038,-22.108 z"
       id="path17"
       inkscape:connector-curvature="0"
       style="clip-rule:evenodd;fill:#131313;fill-rule:evenodd" /><path
       d="m 171.173,88.202 c -0.044,3.676 -2.072,5.931 -5.293,5.885 -3.037,-0.045 -4.892,-2.326 -5.021,-5.91 -0.096,-2.618 0.479,-4.831 3.001,-6.051 3.844,-1.859 7.371,1.096 7.313,6.076 z m -8.11,-0.361 c -0.005,2.636 0.99,4.043 2.901,4.102 1.839,0.057 3.027,-1.503 3.049,-3.999 0.022,-2.623 -0.986,-4.011 -2.943,-4.052 -1.955,-0.041 -3.002,1.334 -3.007,3.949 z"
       id="path19"
       inkscape:connector-curvature="0"
       style="clip-rule:evenodd;fill:#0c77be;fill-rule:evenodd" /><path
       d="m 152.774,91.889 c 1.855,0 3.712,-0.002 5.568,0.001 0.674,0.001 1.316,-0.04 1.363,0.966 0.05,1.079 -0.525,1.208 -1.382,1.2 -2.491,-0.024 -4.985,-0.057 -7.476,0.012 -1.295,0.037 -1.568,-0.48 -1.342,-1.651 0.315,-1.635 1.391,-2.598 2.739,-3.336 1.308,-0.718 2.654,-1.364 3.966,-2.073 0.682,-0.369 1.33,-0.957 1.221,-1.731 -0.135,-0.945 -1.066,-1.179 -1.9,-1.308 -1.162,-0.178 -2.36,-0.276 -3.332,0.543 -0.941,0.794 -1.412,-0.025 -1.79,-0.542 -0.632,-0.864 0.325,-1.151 0.813,-1.437 1.162,-0.68 2.454,-1.098 3.809,-0.921 2.053,0.268 4.039,0.905 4.562,3.198 0.494,2.16 -1.074,3.349 -2.697,4.302 -1.379,0.811 -2.832,1.498 -4.252,2.239 0.044,0.179 0.087,0.358 0.13,0.538 z"
       id="path21"
       inkscape:connector-curvature="0"
       style="clip-rule:evenodd;fill:#0c77be;fill-rule:evenodd" /><path
       d="m 175.58,87.863 c -0.001,1.663 -0.03,3.327 0.013,4.989 0.02,0.791 -0.151,1.248 -1.059,1.27 -0.958,0.022 -1.221,-0.342 -1.296,-1.307 0.021,-2.707 0.849,-8.758 -0.606,-8.568 -0.243,-0.531 0.413,-1.549 0.795,-2.267 0.249,-0.469 0.858,-0.444 1.362,-0.395 0.812,0.079 0.798,0.684 0.795,1.288 -0.008,1.664 -0.003,3.327 -0.004,4.99 z"
       id="path23"
       inkscape:connector-curvature="0"
       style="clip-rule:evenodd;fill:#0c77be;fill-rule:evenodd" /></g></svg>